<svg xmlns="http://www.w3.org/2000/svg" xmlns:xlink="http://www.w3.org/1999/xlink" width="500" zoomAndPan="magnify" viewBox="0 0 375 374.999991" height="500" preserveAspectRatio="xMidYMid meet" version="1.0"><defs><g/><clipPath id="302ab38a61"><path d="M 38 115.34375 L 331 115.34375 L 331 259.34375 L 38 259.34375 Z M 38 115.34375 " clip-rule="nonzero"/></clipPath></defs><rect x="-37.5" width="450" fill="#ffffff" y="-37.499999" height="449.999989" fill-opacity="1"/><rect x="-37.5" width="450" fill="#231f20" y="-37.499999" height="449.999989" fill-opacity="1"/><g clip-path="url(#302ab38a61)"><path fill="#ffffff" d="M 199.109375 129.152344 C 202.792969 125.679688 205.210938 120.910156 205.621094 115.582031 L 205.734375 115.5625 C 206.199219 121.726562 209.359375 127.089844 214.050781 130.523438 C 240.675781 133.644531 263.691406 139.957031 280.25 148.367188 C 262.628906 142.460938 240.933594 138.359375 217.027344 136.78125 C 210.738281 140.011719 206.292969 146.34375 205.734375 153.710938 L 205.621094 153.710938 C 205.007812 145.5625 199.613281 138.75 192.242188 136.058594 L 191.964844 136.058594 C 117.726562 136.652344 57.539062 160.804688 57.539062 189.988281 C 57.539062 202.035156 67.789062 213.042969 85.019531 221.804688 C 56.757812 212.339844 38.894531 198.210938 38.894531 182.320312 C 38.894531 134.515625 161.765625 126.589844 199.109375 129.152344 Z M 163.570312 221.507812 L 163.683594 221.507812 C 164.167969 227.746094 167.421875 233.1875 172.222656 236.621094 C 201.660156 236.769531 311.394531 226.96875 311.394531 182.671875 C 311.394531 170.644531 301.144531 159.617188 283.914062 150.871094 C 312.175781 160.339844 330.019531 174.449219 330.019531 190.359375 C 330.019531 237.695312 209.027344 245.808594 173.210938 243.730469 C 167.871094 247.183594 164.203125 252.992188 163.683594 259.660156 L 163.570312 259.660156 C 162.863281 250.339844 155.960938 242.800781 146.957031 241.113281 C 127.289062 238.21875 106.433594 233.316406 88.683594 224.3125 C 107.269531 230.53125 130.378906 234.746094 155.871094 236.117188 C 160.222656 232.609375 163.125 227.394531 163.570312 221.507812 " fill-opacity="1" fill-rule="evenodd"/></g><path stroke-linecap="butt" transform="matrix(0.890742, -0.0909061, 0.0909061, 0.890742, 73.482751, 154.949037)" fill="none" stroke-linejoin="miter" d="M 19.204015 63.395019 L 32.53159 63.391329 C 33.763584 63.394271 34.324463 62.109584 33.710385 61.16545 L 30.510411 56.339462 C 29.896333 55.395328 30.292014 54.440226 31.303108 53.986471 C 35.269184 52.251165 37.798335 48.395786 37.795133 43.571531 L 37.797689 21.631689 C 37.797261 15.018478 32.982381 10.203094 26.36917 10.203523 L 12.822372 10.206766 C 6.218284 10.20374 1.39422 15.017734 1.394648 21.630945 L 1.396432 43.57123 C 1.393853 49.956093 5.930696 54.659779 12.206341 55.002044 C 12.601387 54.998507 12.930973 55.163705 13.163389 55.507558 L 17.974689 62.721384 C 18.249975 63.117852 18.700022 63.391822 19.204015 63.395019 Z M 19.60329 42.122775 C 18.809301 42.125066 18.192383 41.509546 18.193104 40.729021 L 18.192737 24.489886 C 18.194786 23.69634 18.809863 23.083763 19.603852 23.081472 C 20.380038 23.08175 20.996955 23.69727 20.994906 24.490816 L 20.995273 40.72995 C 20.994995 41.506136 20.379475 42.123053 19.60329 42.122775 Z M 19.60329 42.122775 " stroke="#231f20" stroke-width="11.269819" stroke-opacity="1" stroke-miterlimit="4"/><path stroke-linecap="butt" transform="matrix(0.893548, -0.0570636, 0.0570636, 0.893548, 109.531089, 151.291646)" fill="none" stroke-linejoin="miter" d="M 12.820007 55.001993 L 26.367669 55.001591 C 32.986382 55.000228 37.796448 50.188246 37.794807 43.573887 L 37.794345 11.612976 C 37.796779 10.821869 37.180402 10.205453 36.389017 10.207373 L 22.443763 10.204241 C 21.66544 10.206995 20.996777 10.820036 20.994343 11.611143 L 20.995986 38.48794 C 20.994387 39.265985 20.382324 39.88264 19.599925 39.880763 C 18.80854 39.882683 18.192163 39.266266 18.193763 38.488221 L 18.19212 11.611424 C 18.194554 10.820317 17.578177 10.203901 16.799853 10.206655 L 2.858954 10.203801 C 2.076276 10.206277 1.394552 10.818483 1.396194 11.614222 L 1.39258 43.570501 C 1.393944 50.189214 6.218987 55.000114 12.820007 55.001993 Z M 12.820007 55.001993 " stroke="#231f20" stroke-width="11.269819" stroke-opacity="1" stroke-miterlimit="4"/><path stroke-linecap="butt" transform="matrix(0.89507, -0.0231392, 0.0231392, 0.89507, 145.692182, 149.003853)" fill="none" stroke-linejoin="miter" d="M 2.858509 55.001602 L 16.797768 54.999729 C 17.578999 54.998105 18.192729 54.385528 18.195465 53.604409 L 18.193204 45.757544 C 18.195828 44.980787 18.80967 44.363849 19.603873 44.366924 C 20.380743 44.365186 20.996215 45.035725 20.997953 45.812595 L 20.997205 53.607012 C 20.994582 54.38377 21.668216 54.999078 22.444973 55.001701 L 36.388593 54.999942 C 37.182908 54.998655 37.796638 54.386079 37.795013 53.604847 L 37.796715 21.632865 C 37.79755 15.01678 32.986042 10.205258 26.369958 10.204424 L 12.823552 10.20336 C 6.220438 10.207225 1.395833 15.018394 1.394998 21.634479 L 1.393296 53.606461 C 1.395034 54.383331 2.077391 54.998865 2.858509 55.001602 Z M 19.602118 30.92955 C 18.807916 30.926475 18.195339 30.312745 18.194053 29.51843 L 18.196112 25.049557 C 18.194713 24.259603 18.808555 23.642665 19.602871 23.641379 C 20.379628 23.644002 20.996566 24.257845 20.997852 25.05216 L 20.995793 29.521033 C 20.997192 30.310987 20.378988 30.927812 19.602118 30.92955 Z M 19.602118 30.92955 " stroke="#231f20" stroke-width="11.269819" stroke-opacity="1" stroke-miterlimit="4"/><path stroke-linecap="butt" transform="matrix(0.895317, 0.00960581, -0.00960581, 0.895317, 181.873001, 148.111454)" fill="none" stroke-linejoin="miter" d="M 2.804333 54.997846 L 33.598253 54.999046 C 34.37923 54.999393 34.992195 54.386363 34.992542 53.605386 L 34.995509 41.275575 C 34.995856 40.494598 34.378463 39.881679 33.597486 39.881332 L 19.65778 39.882549 C 18.863716 39.882342 18.193926 39.265622 18.19432 38.489008 L 18.194534 11.669773 C 18.194741 10.875708 17.576739 10.206077 16.800125 10.205683 L 2.856057 10.206947 C 2.079442 10.206554 1.392314 10.82038 1.39647 11.614397 L 1.393222 53.603744 C 1.392875 54.384721 2.010315 55.002002 2.804333 54.997846 Z M 2.804333 54.997846 " stroke="#231f20" stroke-width="11.269819" stroke-opacity="1" stroke-miterlimit="4"/><path stroke-linecap="butt" transform="matrix(0.894728, 0.0338555, -0.0338555, 0.894728, 215.267086, 148.582387)" fill="none" stroke-linejoin="miter" d="M 2.856689 55.001641 L 16.801074 54.997904 C 17.57824 54.999058 18.192472 54.386426 18.193461 53.604901 L 18.193748 11.614139 C 18.194242 10.819535 17.524771 10.203087 16.743411 10.206458 L 2.80322 10.205671 C 2.008616 10.205177 1.394548 10.822168 1.393889 11.612412 L 1.393768 53.607534 C 1.392614 54.384699 2.079524 55.000487 2.856689 55.001641 Z M 2.856689 55.001641 " stroke="#231f20" stroke-width="11.269819" stroke-opacity="1" stroke-miterlimit="4"/><path stroke-linecap="butt" transform="matrix(0.89348, 0.0581288, -0.0581288, 0.89348, 233.621092, 149.185039)" fill="none" stroke-linejoin="miter" d="M 11.303542 55.000997 L 25.245562 54.998939 C 26.041302 54.999633 26.653545 54.33024 26.655371 53.551913 L 26.654779 26.730029 C 26.655756 25.938643 27.323923 25.322447 28.102249 25.324273 L 33.706976 25.322508 C 34.489656 25.324051 35.100944 24.707184 35.10277 23.928858 L 35.101592 11.613147 C 35.101614 10.874286 34.489771 10.205836 33.707091 10.204292 L 2.802693 10.151336 C 2.011306 10.150359 1.395665 10.76751 1.394688 11.558896 L 1.395195 23.931486 C 1.393369 24.709812 2.010519 25.325454 2.801623 25.322077 L 8.393573 25.325515 C 9.184676 25.322139 9.854352 25.938735 9.857729 26.729838 L 9.857366 53.604248 C 9.855823 54.386928 10.525216 54.99917 11.303542 55.000997 Z M 11.303542 55.000997 " stroke="#231f20" stroke-width="11.269819" stroke-opacity="1" stroke-miterlimit="4"/><path stroke-linecap="butt" transform="matrix(0.890747, 0.0908578, -0.0908578, 0.890747, 267.339889, 151.375946)" fill="none" stroke-linejoin="miter" d="M 12.714478 55.001355 L 26.655437 55.000211 C 27.435963 54.999532 28.048573 54.384489 28.047895 53.603963 L 28.04963 38.487433 C 28.047623 37.693886 28.664574 37.0784 29.4451 37.077722 L 36.510222 37.080652 C 37.233883 37.081388 37.904331 36.517455 37.905067 35.793795 L 37.903601 11.832309 C 37.906915 10.875962 37.342982 10.205513 36.443942 10.205124 L 22.511664 10.205383 C 21.722458 10.206947 21.105507 10.822433 21.106098 11.559114 L 21.107881 22.75477 C 21.106163 23.640789 20.435715 24.204722 19.654747 24.20106 C 18.86554 24.202624 18.194604 23.643954 18.195878 22.753594 L 18.194096 11.557939 C 18.193505 10.821258 17.578018 10.204307 16.801833 10.204543 L 2.856534 10.20613 C 1.953154 10.206184 1.394484 10.877121 1.39551 11.833026 L 1.392636 35.794954 C 1.396239 36.518171 2.076299 37.080297 2.8043 37.08059 L 9.855958 37.080508 C 10.636484 37.07983 11.251528 37.692441 11.249194 38.48643 L 11.252242 53.606858 C 11.248137 54.383486 11.920489 54.999022 12.714478 55.001355 Z M 12.714478 55.001355 " stroke="#231f20" stroke-width="11.269819" stroke-opacity="1" stroke-miterlimit="4"/><g fill="#ffffff" fill-opacity="1"><g transform="translate(78.482584, 203.939841)"><g><path d="M 17.871094 5.734375 L 29.738281 4.523438 C 30.835938 4.410156 31.21875 3.214844 30.582031 2.421875 L 27.304688 -1.578125 C 26.667969 -2.367188 26.929688 -3.253906 27.789062 -3.742188 C 31.171875 -5.648438 33.0625 -9.320312 32.625 -13.609375 L 30.628906 -33.160156 C 30.03125 -39.042969 25.304688 -42.894531 19.417969 -42.296875 L 7.347656 -41.0625 C 1.464844 -40.464844 -2.386719 -35.734375 -1.785156 -29.851562 L 0.207031 -10.300781 C 0.789062 -4.617188 5.257812 -0.839844 10.871094 -1.109375 C 11.222656 -1.144531 11.535156 -1.027344 11.765625 -0.746094 L 16.710938 5.25 C 16.996094 5.570312 17.421875 5.78125 17.871094 5.734375 Z M 16.285156 -13.253906 C 15.585938 -13.179688 14.980469 -13.671875 14.910156 -14.371094 L 13.433594 -28.835938 C 13.363281 -29.53125 13.855469 -30.136719 14.554688 -30.207031 C 15.253906 -30.28125 15.855469 -29.789062 15.929688 -29.089844 L 17.40625 -14.625 C 17.476562 -13.929688 16.984375 -13.324219 16.285156 -13.253906 Z M 16.285156 -13.253906 "/></g></g></g><g fill="#ffffff" fill-opacity="1"><g transform="translate(112.66959, 200.436807)"><g><path d="M 11.457031 -0.730469 L 23.5625 -1.503906 C 29.46875 -1.882812 33.496094 -6.460938 33.117188 -12.363281 L 31.292969 -40.929688 C 31.25 -41.628906 30.664062 -42.144531 29.964844 -42.101562 L 17.507812 -41.304688 C 16.804688 -41.261719 16.242188 -40.671875 16.285156 -39.972656 L 17.820312 -15.957031 C 17.863281 -15.257812 17.347656 -14.671875 16.648438 -14.625 C 15.949219 -14.582031 15.363281 -15.097656 15.316406 -15.796875 L 13.785156 -39.8125 C 13.738281 -40.511719 13.152344 -41.027344 12.453125 -40.980469 L -0.00390625 -40.1875 C -0.703125 -40.140625 -1.269531 -39.554688 -1.226562 -38.851562 L 0.597656 -10.285156 C 0.976562 -4.382812 5.554688 -0.355469 11.457031 -0.730469 Z M 11.457031 -0.730469 "/></g></g></g><g fill="#ffffff" fill-opacity="1"><g transform="translate(146.964836, 198.232679)"><g><path d="M 2.554688 -0.0664062 L 15.035156 -0.386719 C 15.734375 -0.40625 16.273438 -0.972656 16.253906 -1.675781 L 16.074219 -8.691406 C 16.054688 -9.390625 16.59375 -9.957031 17.292969 -9.976562 C 17.996094 -9.992188 18.5625 -9.40625 18.582031 -8.703125 L 18.761719 -1.738281 C 18.777344 -1.035156 19.394531 -0.5 20.097656 -0.519531 L 32.574219 -0.84375 C 33.277344 -0.859375 33.8125 -1.425781 33.796875 -2.128906 L 33.054688 -30.742188 C 32.902344 -36.65625 28.480469 -40.855469 22.566406 -40.703125 L 10.441406 -40.386719 C 4.527344 -40.234375 0.328125 -35.816406 0.480469 -29.902344 L 1.21875 -1.285156 C 1.238281 -0.582031 1.855469 -0.046875 2.554688 -0.0664062 Z M 16.984375 -22.003906 C 16.28125 -21.984375 15.714844 -22.523438 15.699219 -23.222656 L 15.59375 -27.234375 C 15.574219 -27.933594 16.113281 -28.5 16.816406 -28.519531 C 17.515625 -28.535156 18.082031 -28 18.101562 -27.296875 L 18.203125 -23.289062 C 18.222656 -22.585938 17.683594 -22.019531 16.984375 -22.003906 Z M 16.984375 -22.003906 "/></g></g></g><g fill="#ffffff" fill-opacity="1"><g transform="translate(181.344681, 197.353897)"><g><path d="M 2.507812 0.0273438 L 30.078125 0.324219 C 30.777344 0.332031 31.335938 -0.214844 31.34375 -0.917969 L 31.460938 -11.945312 C 31.46875 -12.648438 30.925781 -13.203125 30.222656 -13.210938 L 17.742188 -13.347656 C 17.039062 -13.355469 16.441406 -13.910156 16.449219 -14.613281 L 16.707031 -38.625 C 16.714844 -39.328125 16.171875 -39.933594 15.46875 -39.941406 L 2.988281 -40.074219 C 2.285156 -40.082031 1.675781 -39.539062 1.671875 -38.835938 L 1.265625 -1.238281 C 1.257812 -0.539062 1.804688 0.0195312 2.507812 0.0273438 Z M 2.507812 0.0273438 "/></g></g></g><g fill="#ffffff" fill-opacity="1"><g transform="translate(213.405033, 197.792442)"><g><path d="M 2.554688 0.0976562 L 15.027344 0.570312 C 15.730469 0.59375 16.300781 0.0664062 16.328125 -0.636719 L 17.75 -38.207031 C 17.777344 -38.910156 17.195312 -39.484375 16.496094 -39.511719 L 4.019531 -39.980469 C 3.320312 -40.007812 2.746094 -39.476562 2.722656 -38.777344 L 1.300781 -1.203125 C 1.273438 -0.503906 1.855469 0.0703125 2.554688 0.0976562 Z M 2.554688 0.0976562 "/></g></g></g><g fill="#ffffff" fill-opacity="1"><g transform="translate(230.42401, 198.326423)"><g><path d="M 10.105469 0.65625 L 22.5625 1.46875 C 23.261719 1.511719 23.851562 0.949219 23.898438 0.25 L 25.457031 -23.714844 C 25.5 -24.414062 26.136719 -24.925781 26.839844 -24.878906 L 31.839844 -24.554688 C 32.539062 -24.507812 33.128906 -25.023438 33.171875 -25.722656 L 33.886719 -36.730469 C 33.929688 -37.378906 33.417969 -38.015625 32.71875 -38.0625 L 5.109375 -39.90625 C 4.40625 -39.953125 3.820312 -39.4375 3.777344 -38.738281 L 3.058594 -27.683594 C 3.011719 -26.984375 3.527344 -26.398438 4.226562 -26.351562 L 9.230469 -26.027344 C 9.929688 -25.980469 10.492188 -25.390625 10.449219 -24.691406 L 8.886719 -0.679688 C 8.839844 0.0234375 9.40625 0.613281 10.105469 0.65625 Z M 10.105469 0.65625 "/></g></g></g><g fill="#ffffff" fill-opacity="1"><g transform="translate(262.342711, 200.367021)"><g><path d="M 11.320312 1.15625 L 23.738281 2.421875 C 24.4375 2.492188 25.042969 2 25.113281 1.300781 L 26.488281 -12.164062 C 26.558594 -12.863281 27.164062 -13.355469 27.859375 -13.285156 L 34.144531 -12.640625 C 34.792969 -12.578125 35.441406 -13.015625 35.507812 -13.664062 L 37.6875 -35.007812 C 37.773438 -35.855469 37.335938 -36.503906 36.535156 -36.585938 L 24.117188 -37.851562 C 23.421875 -37.925781 22.816406 -37.433594 22.75 -36.785156 L 21.730469 -26.808594 C 21.652344 -26.011719 21 -25.574219 20.304688 -25.644531 C 19.605469 -25.714844 19.058594 -26.277344 19.140625 -27.074219 L 20.15625 -37.046875 C 20.222656 -37.695312 19.730469 -38.300781 19.03125 -38.371094 L 6.613281 -39.640625 C 5.816406 -39.71875 5.253906 -39.171875 5.167969 -38.324219 L 2.992188 -16.980469 C 2.925781 -16.332031 3.472656 -15.769531 4.121094 -15.703125 L 10.40625 -15.0625 C 11.105469 -14.992188 11.597656 -14.386719 11.523438 -13.691406 L 10.152344 -0.222656 C 10.082031 0.472656 10.621094 1.082031 11.320312 1.15625 Z M 11.320312 1.15625 "/></g></g></g><g fill="#ffffff" fill-opacity="1"><g transform="translate(73.238733, 217.390926)"><g><path d="M 15.4375 -1.5625 L 12.21875 -1.234375 L 11.71875 -6.125 L 9.34375 -0.953125 L 6.953125 -0.703125 L 3.578125 -5.296875 L 4.078125 -0.40625 L 0.859375 -0.09375 L 0.078125 -7.75 L 3.890625 -8.125 L 7.921875 -3.015625 L 10.828125 -8.828125 L 14.65625 -9.21875 Z M 15.4375 -1.5625 "/></g></g></g><g fill="#ffffff" fill-opacity="1"><g transform="translate(89.504332, 215.751472)"><g><path d="M 12.890625 -1.125 L 9.640625 -0.84375 L 8.796875 -2.046875 L 3.953125 -1.625 L 3.34375 -0.296875 L 0.078125 0 L 4.328125 -8.109375 L 7.3125 -8.359375 Z M 7.546875 -3.84375 L 6 -6.046875 L 4.875 -3.609375 Z M 7.546875 -3.84375 "/></g></g></g><g fill="#ffffff" fill-opacity="1"><g transform="translate(102.458701, 214.623426)"><g><path d="M 12.265625 -0.90625 L 8.4375 -0.625 L 3.6875 -5.5 L 4.078125 -0.296875 L 0.859375 -0.0625 L 0.296875 -7.75 L 4.125 -8.03125 L 8.84375 -3.1875 L 8.46875 -8.359375 L 11.703125 -8.59375 Z M 12.265625 -0.90625 "/></g></g></g><g fill="#ffffff" fill-opacity="1"><g transform="translate(115.555145, 213.652647)"><g><path d="M 12.90625 -0.796875 L 9.65625 -0.59375 L 8.84375 -1.8125 L 4 -1.515625 L 3.359375 -0.203125 L 0.078125 0 L 4.53125 -8 L 7.53125 -8.171875 Z M 7.65625 -3.65625 L 6.15625 -5.890625 L 4.96875 -3.484375 Z M 7.65625 -3.65625 "/></g></g></g><g fill="#ffffff" fill-opacity="1"><g transform="translate(128.536006, 212.861003)"><g><path d="M 5.84375 -0.109375 C 3.9375 -0.015625 2.515625 -0.34375 1.578125 -1.09375 C 0.753906 -1.738281 0.3125 -2.660156 0.25 -3.859375 C 0.1875 -5.054688 0.535156 -6.019531 1.296875 -6.75 C 2.148438 -7.570312 3.53125 -8.03125 5.4375 -8.125 C 6.507812 -8.175781 7.410156 -8.097656 8.140625 -7.890625 C 8.878906 -7.691406 9.460938 -7.394531 9.890625 -7 C 10.328125 -6.601562 10.628906 -6.132812 10.796875 -5.59375 L 7.34375 -5.421875 C 6.957031 -5.898438 6.359375 -6.117188 5.546875 -6.078125 C 4.765625 -6.046875 4.203125 -5.796875 3.859375 -5.328125 C 3.578125 -4.941406 3.445312 -4.503906 3.46875 -4.015625 C 3.488281 -3.523438 3.660156 -3.113281 3.984375 -2.78125 C 4.367188 -2.351562 4.953125 -2.15625 5.734375 -2.1875 C 6.347656 -2.21875 6.8125 -2.296875 7.125 -2.421875 C 7.4375 -2.546875 7.660156 -2.703125 7.796875 -2.890625 L 6.546875 -2.828125 L 6.484375 -4.171875 L 10.859375 -4.390625 L 11.046875 -0.546875 L 9.71875 -0.484375 L 9.40625 -1.203125 C 8.582031 -0.554688 7.394531 -0.191406 5.84375 -0.109375 Z M 5.84375 -0.109375 "/></g></g></g><g fill="#ffffff" fill-opacity="1"><g transform="translate(140.218458, 212.289823)"><g><path d="M 10.140625 -0.390625 L 0.859375 -0.03125 L 0.5625 -7.734375 L 9.421875 -8.078125 L 9.5 -6.171875 L 3.875 -5.953125 L 3.921875 -4.75 L 8.671875 -4.9375 L 8.71875 -3.453125 L 3.96875 -3.265625 L 4.015625 -2.0625 L 10.0625 -2.296875 Z M 10.140625 -0.390625 "/></g></g></g><g fill="#ffffff" fill-opacity="1"><g transform="translate(150.756516, 211.86779)"><g><path d="M 15.515625 -0.390625 L 12.28125 -0.3125 L 12.15625 -5.234375 L 9.390625 -0.234375 L 6.984375 -0.171875 L 3.96875 -5.03125 L 4.09375 -0.109375 L 0.859375 -0.015625 L 0.671875 -7.71875 L 4.515625 -7.828125 L 8.125 -2.40625 L 11.484375 -8 L 15.328125 -8.09375 Z M 15.515625 -0.390625 "/></g></g></g><g fill="#ffffff" fill-opacity="1"><g transform="translate(167.10261, 211.477678)"><g><path d="M 10.140625 -0.125 L 0.859375 -0.015625 L 0.765625 -7.71875 L 9.625 -7.8125 L 9.65625 -5.90625 L 4.03125 -5.84375 L 4.046875 -4.640625 L 8.796875 -4.703125 L 8.8125 -3.21875 L 4.0625 -3.15625 L 4.078125 -1.953125 L 10.125 -2.03125 Z M 10.140625 -0.125 "/></g></g></g><g fill="#ffffff" fill-opacity="1"><g transform="translate(177.651814, 211.345121)"><g><path d="M 12.296875 0 L 8.453125 0 L 4.09375 -5.21875 L 4.09375 0 L 0.859375 0 L 0.859375 -7.703125 L 4.703125 -7.703125 L 9.0625 -2.515625 L 9.0625 -7.703125 L 12.296875 -7.703125 Z M 12.296875 0 "/></g></g></g><g fill="#ffffff" fill-opacity="1"><g transform="translate(190.78765, 211.35105)"><g><path d="M 6.578125 0.078125 L 3.34375 0.03125 L 3.40625 -5.765625 L 0.390625 -5.796875 L 0.40625 -7.703125 L 9.671875 -7.59375 L 9.65625 -5.6875 L 6.640625 -5.71875 Z M 6.578125 0.078125 "/></g></g></g><g fill="#ffffff" fill-opacity="1"><g transform="translate(200.693793, 211.471599)"><g/></g></g><g fill="#ffffff" fill-opacity="1"><g transform="translate(203.409094, 211.50654)"><g><path d="M 5.09375 0.296875 C 4.050781 0.265625 3.210938 0.128906 2.578125 -0.109375 C 1.941406 -0.347656 1.460938 -0.664062 1.140625 -1.0625 C 0.828125 -1.46875 0.617188 -1.925781 0.515625 -2.4375 L 3.9375 -2.359375 C 4.1875 -1.992188 4.585938 -1.800781 5.140625 -1.78125 C 5.691406 -1.769531 6.101562 -1.941406 6.375 -2.296875 C 6.394531 -2.328125 6.40625 -2.359375 6.40625 -2.390625 C 6.40625 -2.484375 6.273438 -2.5625 6.015625 -2.625 C 5.753906 -2.6875 5.375 -2.734375 4.875 -2.765625 C 4.226562 -2.804688 3.554688 -2.890625 2.859375 -3.015625 C 1.296875 -3.285156 0.523438 -3.929688 0.546875 -4.953125 C 0.554688 -5.046875 0.566406 -5.140625 0.578125 -5.234375 C 0.703125 -5.742188 0.929688 -6.191406 1.265625 -6.578125 C 1.609375 -6.960938 2.101562 -7.257812 2.75 -7.46875 C 3.394531 -7.675781 4.238281 -7.765625 5.28125 -7.734375 C 6.320312 -7.710938 7.15625 -7.582031 7.78125 -7.34375 C 8.414062 -7.101562 8.894531 -6.785156 9.21875 -6.390625 C 9.539062 -5.992188 9.753906 -5.535156 9.859375 -5.015625 L 6.4375 -5.09375 C 6.1875 -5.46875 5.785156 -5.660156 5.234375 -5.671875 C 4.679688 -5.691406 4.269531 -5.519531 4 -5.15625 C 3.976562 -5.125 3.96875 -5.097656 3.96875 -5.078125 C 3.96875 -4.984375 4.085938 -4.914062 4.328125 -4.875 C 4.578125 -4.832031 4.9375 -4.789062 5.40625 -4.75 C 5.882812 -4.707031 6.394531 -4.644531 6.9375 -4.5625 C 7.476562 -4.488281 7.984375 -4.363281 8.453125 -4.1875 C 8.921875 -4.019531 9.285156 -3.78125 9.546875 -3.46875 C 9.742188 -3.21875 9.835938 -2.910156 9.828125 -2.546875 C 9.828125 -2.441406 9.816406 -2.332031 9.796875 -2.21875 C 9.671875 -1.71875 9.4375 -1.269531 9.09375 -0.875 C 8.75 -0.488281 8.253906 -0.191406 7.609375 0.015625 C 6.972656 0.222656 6.132812 0.316406 5.09375 0.296875 Z M 5.09375 0.296875 "/></g></g></g><g fill="#ffffff" fill-opacity="1"><g transform="translate(213.582294, 211.742197)"><g><path d="M 5.828125 0.375 C 3.921875 0.3125 2.53125 -0.128906 1.65625 -0.953125 C 0.882812 -1.671875 0.519531 -2.628906 0.5625 -3.828125 C 0.601562 -5.023438 1.035156 -5.957031 1.859375 -6.625 C 2.773438 -7.375 4.1875 -7.71875 6.09375 -7.65625 C 8 -7.59375 9.390625 -7.15625 10.265625 -6.34375 C 11.023438 -5.613281 11.382812 -4.648438 11.34375 -3.453125 C 11.300781 -2.253906 10.875 -1.328125 10.0625 -0.671875 C 9.144531 0.0859375 7.734375 0.4375 5.828125 0.375 Z M 5.890625 -1.703125 C 6.671875 -1.679688 7.253906 -1.882812 7.640625 -2.3125 C 7.941406 -2.664062 8.097656 -3.085938 8.109375 -3.578125 C 8.128906 -4.078125 8 -4.503906 7.71875 -4.859375 C 7.375 -5.328125 6.8125 -5.570312 6.03125 -5.59375 C 5.25 -5.625 4.664062 -5.421875 4.28125 -4.984375 C 3.96875 -4.640625 3.800781 -4.21875 3.78125 -3.71875 C 3.769531 -3.226562 3.910156 -2.800781 4.203125 -2.4375 C 4.546875 -1.976562 5.109375 -1.734375 5.890625 -1.703125 Z M 5.890625 -1.703125 "/></g></g></g><g fill="#ffffff" fill-opacity="1"><g transform="translate(225.213236, 212.144609)"><g><path d="M 9.84375 0.4375 L 0.859375 0.03125 L 1.203125 -7.671875 L 4.4375 -7.515625 L 4.171875 -1.71875 L 9.921875 -1.46875 Z M 9.84375 0.4375 "/></g></g></g><g fill="#ffffff" fill-opacity="1"><g transform="translate(235.256549, 212.593467)"><g><path d="M 5.390625 0.46875 C 3.515625 0.363281 2.222656 -0.0976562 1.515625 -0.921875 C 0.898438 -1.609375 0.628906 -2.570312 0.703125 -3.8125 L 0.90625 -7.65625 L 4.140625 -7.484375 L 3.9375 -3.640625 C 3.90625 -3.109375 3.96875 -2.679688 4.125 -2.359375 C 4.375 -1.898438 4.835938 -1.648438 5.515625 -1.609375 C 6.210938 -1.566406 6.703125 -1.765625 6.984375 -2.203125 C 7.179688 -2.515625 7.296875 -2.929688 7.328125 -3.453125 L 7.53125 -7.296875 L 10.765625 -7.109375 L 10.546875 -3.21875 C 10.484375 -2.007812 10.117188 -1.097656 9.453125 -0.484375 C 8.628906 0.253906 7.273438 0.570312 5.390625 0.46875 Z M 5.390625 0.46875 "/></g></g></g><g fill="#ffffff" fill-opacity="1"><g transform="translate(246.067442, 213.192149)"><g><path d="M 6.5625 0.421875 L 3.34375 0.21875 L 3.71875 -5.5625 L 0.703125 -5.765625 L 0.828125 -7.671875 L 10.078125 -7.0625 L 9.953125 -5.15625 L 6.9375 -5.359375 Z M 6.5625 0.421875 "/></g></g></g><g fill="#ffffff" fill-opacity="1"><g transform="translate(255.950105, 213.846998)"><g><path d="M 4.078125 0.296875 L 0.859375 0.0625 L 1.421875 -7.625 L 4.640625 -7.390625 Z M 4.078125 0.296875 "/></g></g></g><g fill="#ffffff" fill-opacity="1"><g transform="translate(260.874482, 214.191054)"><g><path d="M 5.796875 0.640625 C 3.890625 0.484375 2.523438 -0.0234375 1.703125 -0.890625 C 0.972656 -1.640625 0.65625 -2.609375 0.75 -3.796875 C 0.84375 -4.992188 1.3125 -5.910156 2.15625 -6.546875 C 3.113281 -7.242188 4.546875 -7.515625 6.453125 -7.359375 C 8.347656 -7.203125 9.707031 -6.703125 10.53125 -5.859375 C 11.269531 -5.097656 11.59375 -4.117188 11.5 -2.921875 C 11.40625 -1.734375 10.929688 -0.828125 10.078125 -0.203125 C 9.117188 0.515625 7.691406 0.796875 5.796875 0.640625 Z M 5.96875 -1.4375 C 6.75 -1.375 7.332031 -1.546875 7.71875 -1.953125 C 8.039062 -2.285156 8.222656 -2.695312 8.265625 -3.1875 C 8.304688 -3.6875 8.191406 -4.125 7.921875 -4.5 C 7.609375 -4.976562 7.0625 -5.25 6.28125 -5.3125 C 5.5 -5.375 4.90625 -5.195312 4.5 -4.78125 C 4.175781 -4.445312 3.992188 -4.03125 3.953125 -3.53125 C 3.910156 -3.039062 4.023438 -2.609375 4.296875 -2.234375 C 4.628906 -1.765625 5.1875 -1.5 5.96875 -1.4375 Z M 5.96875 -1.4375 "/></g></g></g><g fill="#ffffff" fill-opacity="1"><g transform="translate(272.471513, 215.123459)"><g><path d="M 12.25 1.140625 L 8.421875 0.78125 L 4.5625 -4.828125 L 4.078125 0.375 L 0.859375 0.078125 L 1.578125 -7.59375 L 5.40625 -7.234375 L 9.265625 -1.65625 L 9.75 -6.828125 L 12.96875 -6.53125 Z M 12.25 1.140625 "/></g></g></g><g fill="#ffffff" fill-opacity="1"><g transform="translate(285.549741, 216.349054)"><g><path d="M 5.046875 0.703125 C 4.015625 0.597656 3.1875 0.398438 2.5625 0.109375 C 1.945312 -0.179688 1.5 -0.539062 1.21875 -0.96875 C 0.9375 -1.394531 0.765625 -1.867188 0.703125 -2.390625 L 4.109375 -2.03125 C 4.335938 -1.644531 4.722656 -1.421875 5.265625 -1.359375 C 5.816406 -1.304688 6.238281 -1.445312 6.53125 -1.78125 C 6.5625 -1.8125 6.578125 -1.84375 6.578125 -1.875 C 6.585938 -1.96875 6.460938 -2.050781 6.203125 -2.125 C 5.953125 -2.207031 5.578125 -2.285156 5.078125 -2.359375 C 4.441406 -2.453125 3.773438 -2.585938 3.078125 -2.765625 C 1.554688 -3.171875 0.847656 -3.878906 0.953125 -4.890625 C 0.960938 -4.984375 0.976562 -5.078125 1 -5.171875 C 1.164062 -5.671875 1.429688 -6.097656 1.796875 -6.453125 C 2.160156 -6.804688 2.671875 -7.054688 3.328125 -7.203125 C 3.992188 -7.359375 4.84375 -7.382812 5.875 -7.28125 C 6.914062 -7.175781 7.738281 -6.976562 8.34375 -6.6875 C 8.957031 -6.40625 9.410156 -6.050781 9.703125 -5.625 C 9.992188 -5.195312 10.171875 -4.722656 10.234375 -4.203125 L 6.828125 -4.5625 C 6.609375 -4.957031 6.222656 -5.179688 5.671875 -5.234375 C 5.128906 -5.296875 4.707031 -5.15625 4.40625 -4.8125 C 4.382812 -4.78125 4.367188 -4.753906 4.359375 -4.734375 C 4.347656 -4.640625 4.460938 -4.5625 4.703125 -4.5 C 4.953125 -4.4375 5.3125 -4.363281 5.78125 -4.28125 C 6.25 -4.207031 6.75 -4.109375 7.28125 -3.984375 C 7.8125 -3.867188 8.304688 -3.707031 8.765625 -3.5 C 9.222656 -3.300781 9.566406 -3.03125 9.796875 -2.6875 C 9.972656 -2.425781 10.046875 -2.113281 10.015625 -1.75 C 9.992188 -1.644531 9.96875 -1.535156 9.9375 -1.421875 C 9.769531 -0.921875 9.5 -0.492188 9.125 -0.140625 C 8.75 0.210938 8.234375 0.46875 7.578125 0.625 C 6.929688 0.78125 6.085938 0.804688 5.046875 0.703125 Z M 5.046875 0.703125 "/></g></g></g></svg>